<?xml version="1.0" encoding="UTF-8" standalone="no"?>
<!-- Created with Inkscape (http://www.inkscape.org/) -->

<svg
   width="92.540047mm"
   height="92.577621mm"
   viewBox="0 0 92.540047 92.577621"
   version="1.1"
   id="svg1"
   inkscape:version="1.4.2 (ebf0e94, 2025-05-08)"
   sodipodi:docname="csu-background.svg"
   xmlns:inkscape="http://www.inkscape.org/namespaces/inkscape"
   xmlns:sodipodi="http://sodipodi.sourceforge.net/DTD/sodipodi-0.dtd"
   xmlns="http://www.w3.org/2000/svg"
   xmlns:svg="http://www.w3.org/2000/svg">
  <sodipodi:namedview
     id="namedview1"
     pagecolor="#ffffff"
     bordercolor="#999999"
     borderopacity="1"
     inkscape:showpageshadow="2"
     inkscape:pageopacity="0"
     inkscape:pagecheckerboard="0"
     inkscape:deskcolor="#d1d1d1"
     inkscape:document-units="mm"
     inkscape:zoom="1.7042017"
     inkscape:cx="248.79684"
     inkscape:cy="143.46893"
     inkscape:window-width="3772"
     inkscape:window-height="2126"
     inkscape:window-x="2149"
     inkscape:window-y="1549"
     inkscape:window-maximized="1"
     inkscape:current-layer="layer1" />
  <defs
     id="defs1" />
  <g
     inkscape:label="Layer 1"
     inkscape:groupmode="layer"
     id="layer1"
     transform="translate(-39.158333,-110.59584)">
    <path
       id="path2"
       d="m 90.504475,183.58675 c -1.672872,0.16545 -3.507316,0.55703 -4.987219,0.52811 -1.479903,0.0289 -3.315406,-0.36266 -4.987219,-0.52811 -0.268464,-0.0303 -0.462845,0.16545 -0.462845,0.16545 -0.977194,2.08245 4.625975,3.23286 5.433483,3.19582 0.807509,0.037 6.441017,-1.11337 5.466644,-3.19582 0,0 -0.198261,-0.19579 -0.462844,-0.16545"
       style="fill:#2f5a3b;fill-opacity:1;fill-rule:nonzero;stroke:none;stroke-width:0.352778" />
    <path
       id="path3"
       d="m 70.252562,155.92827 c 1.549047,-1.41923 5.567539,3.12667 4.677128,6.68196 -0.395464,0.12982 -0.592314,-0.0963 -1.518356,-1.60937 -0.657577,-1.15464 -2.337152,-0.92604 -3.128433,-1.38642 -1.278819,-0.8255 -1.215319,-2.60315 -0.03034,-3.68617 z m -0.989189,13.69483 c 0.856898,2.30576 2.833159,6.12704 5.299781,9.71515 -0.688975,-5.69666 2.472266,-9.44916 3.197224,-10.99785 1.351845,-2.07257 2.769659,-6.58707 1.94557,-8.49418 -1.317272,-0.52917 -2.899128,-1.55187 -3.855508,-3.00003 -0.956381,-1.38077 -1.513064,-2.92699 -3.191581,-3.38878 -1.120422,-0.39828 -2.375958,-0.16404 -3.294944,0.3295 -1.479903,0.85583 -1.841147,2.89383 -2.072569,4.50744 -0.09772,3.32669 0.523522,8.23524 1.972027,11.32875"
       style="fill:#2f5a3b;fill-opacity:1;fill-rule:nonzero;stroke:none;stroke-width:0.352778" />
    <path
       id="path4"
       d="m 100.58051,155.92827 c 1.21673,1.08302 1.25272,2.86067 -0.0332,3.68617 -0.756353,0.46038 -2.437692,0.23178 -3.126667,1.38642 -0.920397,1.51306 -1.12148,1.73919 -1.514475,1.60937 -0.887236,-3.55529 3.125611,-8.10119 4.674302,-6.68196 z m -4.281307,23.40998 c 2.469444,-3.58811 4.442527,-7.40939 5.266617,-9.71515 1.45098,-3.09351 2.10855,-8.00206 1.97767,-11.32875 -0.1972,-1.61361 -0.59125,-3.65161 -2.07398,-4.50744 -0.92216,-0.49354 -2.171696,-0.72778 -3.289296,-0.3295 -1.679928,0.46179 -2.209095,2.00801 -3.201459,3.38878 -0.949325,1.44816 -2.53118,2.47086 -3.848805,3.00003 -0.8255,1.90711 0.595489,6.42161 1.944511,8.49418 0.755297,1.54869 3.881967,5.30119 3.224742,10.99785"
       style="fill:#2f5a3b;fill-opacity:1;fill-rule:nonzero;stroke:none;stroke-width:0.352778" />
    <path
       id="path5"
       d="m 53.458577,154.04726 c -0.165453,1.41816 1.745897,2.93264 2.964039,3.8227 1.252714,0.95214 3.228975,1.01988 4.248502,2.56857 0.854428,1.3148 1.546225,3.32105 1.78047,5.13609 0.392641,3.49321 0.328083,7.86871 2.765777,10.76925 0.457553,-1.71556 -0.792339,-5.56436 -0.821266,-10.53783 -0.03986,-1.84361 -0.728839,-3.95217 -1.813631,-5.33999 2.0066,-0.16122 2.039761,0.10336 2.204861,-0.52352 0.194381,-0.62548 -0.198261,-1.31728 -0.660047,-1.87537 -1.448153,-1.67852 -3.520722,-0.79128 -5.368925,-1.38642 -1.215319,-0.4258 -3.090686,-1.05163 -3.191227,-2.76154 -0.06491,-1.15359 3.558116,-1.41817 3.558116,-1.41817 2.895247,0.22895 2.564342,1.87572 4.573411,2.03941 1.648178,0.1337 2.339975,-1.61078 2.869142,-2.66488 0.789516,-1.67852 1.708855,-5.2698 -1.648178,-4.74345 -1.747308,0.29633 -2.075392,2.86773 -0.760589,4.41395 -1.213908,-0.1337 -3.027539,-1.81222 -7.309202,-0.46284 -1.478492,0.46284 -3.159831,1.05692 -3.391253,2.96404"
       style="fill:#2f5a3b;fill-opacity:1;fill-rule:nonzero;stroke:none;stroke-width:0.352778" />
    <path
       id="path6"
       d="m 77.629498,181.15047 c 1.678164,1.4485 3.887258,2.43628 6.914797,1.51306 0.75953,-0.52352 0.329494,-2.07257 -0.06315,-2.76825 -1.418167,-1.84114 -3.623028,-1.11372 -4.249914,-2.03694 -0.595489,-0.88864 -0.197203,-1.58467 0.163689,-2.04082 0.528108,-0.65722 1.382183,-0.49459 2.107141,-0.29774 1.287286,0.29069 2.160764,0.82973 2.96545,1.61784 v 0.0593 l 0.03034,-0.0289 0.03457,0.0289 v -0.0607 c 0.774348,-0.78952 1.681339,-1.32821 2.964039,-1.61643 0.691797,-0.19685 1.580797,-0.35948 2.075392,0.29774 0.395463,0.45615 0.756708,1.15218 0.165452,2.04082 -0.626886,0.92322 -2.798938,0.1958 -4.216752,2.03694 -0.392995,0.69568 -0.85725,2.24473 -0.103364,2.76825 3.065991,0.92322 5.239102,-0.0646 6.917619,-1.51306 3.821289,-3.26179 -1.380772,-10.14378 -3.950758,-12.90814 -1.426281,-1.52824 -2.313869,-2.85786 -3.851628,-2.89525 v -0.003 l -0.03457,0.003 -0.03034,-0.003 v 0.003 c -1.57233,0.0374 -2.423936,1.3656 -3.885847,2.89525 -2.534355,2.76436 -7.740649,9.64635 -3.952169,12.90814"
       style="fill:#2f5a3b;fill-opacity:1;fill-rule:nonzero;stroke:none;stroke-width:0.352778" />
    <path
       id="path7"
       d="m 107.59479,154.54044 c 2.00907,-0.16369 1.70886,-1.81046 4.6094,-2.03941 0,0 3.62161,0.26458 3.55953,1.41817 -0.13371,1.70991 -2.01331,2.33574 -3.22863,2.76154 -1.8108,0.59514 -3.88867,-0.2921 -5.36892,1.38642 -0.45755,0.55809 -0.82409,1.24989 -0.66146,1.87537 0.16545,0.62688 0.23707,0.3623 2.24226,0.52352 -1.12184,1.38782 -1.77906,3.49638 -1.81081,5.33999 -0.0621,4.97347 -1.31763,8.82227 -0.82409,10.53783 2.40594,-2.90054 2.37031,-7.27604 2.7686,-10.76925 0.2286,-1.81504 0.88582,-3.82129 1.77906,-5.13609 1.01952,-1.54869 2.96404,-1.61643 4.24568,-2.56857 1.21814,-0.89006 3.12526,-2.40454 2.96121,-3.8227 -0.23001,-1.90712 -1.90852,-2.5012 -3.38843,-2.96404 -4.28307,-1.34938 -6.09388,0.32914 -7.34377,0.46284 1.34796,-1.54622 1.01847,-4.11762 -0.75495,-4.41395 -3.32951,-0.52635 -2.40735,3.06493 -1.61501,4.74345 0.52634,1.0541 1.18357,2.79858 2.83033,2.66488"
       style="fill:#2f5a3b;fill-opacity:1;fill-rule:nonzero;stroke:none;stroke-width:0.352778" />
    <path
       id="path8"
       d="m 75.135928,147.30716 c 0.97051,0.89466 5.345951,0 6.182122,-1.0258 1.103786,-1.32249 3.306394,-6.08961 0.801785,-9.23118 -3.457392,-4.37544 -17.364241,-16.93357 -30.520698,-7.46313 3.203956,-4.41125 8.029207,-8.39466 13.79732,-11.35085 6.500778,-3.33014 13.617609,-5.06203 20.046433,-4.8848 h 0.03757 c 6.421737,-0.17581 13.521904,1.55466 19.99894,4.8848 5.7394,2.95052 10.5565,6.93251 13.77286,11.34801 -13.18552,-9.46654 -27.055153,3.09053 -30.548704,7.46597 -2.471287,3.14157 -0.298807,7.90869 0.803206,9.23118 0.868069,1.0258 5.244931,1.92046 6.21402,1.0258 6.216858,-5.58946 9.826668,-17.73394 30.440598,-5.55614 -2.23629,-0.33107 -6.37885,-1.55927 -8.28123,-0.33107 -5.55367,3.44215 7.81334,11.38133 -0.90706,27.09663 0.0695,0.0985 5.11626,-2.5156 7.05196,-2.44931 1.27109,0.0652 1.94102,0.92371 1.73898,2.21536 -0.26727,1.78896 -1.63796,2.91614 -2.77471,3.87566 -4.84616,3.96959 -11.89529,13.49709 -8.3546,13.29895 3.50844,-0.16589 11.33135,-11.64575 12.56522,-14.39139 -1.43591,4.79476 -4.30774,9.32652 -7.1863,13.26598 -1.53835,2.08493 -3.30356,3.80335 -5.54374,4.59946 -1.40402,0.56076 -2.87715,0.7947 -4.31306,0.13151 -1.13143,-0.49412 -1.83752,-1.6213 -2.03956,-2.87998 -0.26052,-1.85099 0.77272,-4.03481 1.67128,-5.4927 1.24202,-2.08103 4.08017,-5.71991 7.35219,-8.1359 4.6466,-3.44357 7.88671,-4.40309 6.68616,-5.19495 -0.83759,-0.56359 -5.24493,1.85382 -6.113,2.31639 -4.95002,2.5475 -11.76911,9.92485 -12.57089,15.38707 -0.55225,3.76329 3.16815,6.58939 6.36643,6.45789 -10.61994,8.52757 -22.177082,8.80618 -26.055572,8.89727 l -0.0319,-0.001 h -0.0081 c -3.912873,-0.0915 -15.490925,-0.38247 -26.070819,-8.89764 3.201474,0.13576 6.927194,-2.69034 6.370693,-6.45647 -0.803204,-5.46221 -7.652771,-12.83957 -12.562384,-15.38707 -0.869842,-0.46257 -5.283921,-2.87998 -6.118672,-2.31639 -1.201971,0.79186 2.036722,1.75139 6.683326,5.19496 3.277328,2.41599 6.085353,6.05486 7.319225,8.13589 0.935773,1.4579 1.9715,3.64172 1.704239,5.4927 -0.202041,1.25869 -0.934355,2.38587 -2.038139,2.87998 -1.438395,0.66319 -2.904793,0.42925 -4.343542,-0.1315 -2.202609,-0.79612 -3.976322,-2.51453 -5.513256,-4.59946 -2.906565,-3.93946 -5.746136,-8.47122 -7.186304,-13.26599 1.233873,2.74564 9.056784,14.22551 12.532255,14.39139 3.572239,0.19815 -3.475471,-9.32936 -8.323053,-13.29895 -1.168652,-0.95952 -2.506026,-2.0867 -2.769034,-3.87565 -0.206295,-1.29165 0.463632,-2.15015 1.734722,-2.21537 1.941373,-0.0663 6.985325,2.54785 7.049128,2.44931 -8.751949,-15.7153 4.646604,-23.65447 -0.898554,-27.09662 -1.94279,-1.2282 -6.046717,0 -8.288316,0.33106 20.62101,-12.17779 24.223733,-0.0333 30.440589,5.55615 z M 120.9526,130.92867 h -0.001 z m -35.50971,72.24479 c 25.47533,0 46.25549,-20.81348 46.25549,-46.28881 0,-25.50723 -20.78016,-46.28881 -46.25549,-46.28881 -25.50723,0 -46.284557,20.78158 -46.284557,46.28881 0,25.47533 20.777327,46.28881 46.284557,46.28881"
       style="fill:#2f5a3b;fill-opacity:1;fill-rule:nonzero;stroke:none;stroke-width:0.35446" />
  </g>
</svg>
