<?xml version="1.0" encoding="UTF-8" standalone="no"?>
<!-- Created with Inkscape (http://www.inkscape.org/) -->

<svg
   width="381.00003mm"
   height="43.504669mm"
   viewBox="0 0 381.00003 43.50467"
   version="1.1"
   id="svg1"
   inkscape:version="1.4.2 (ebf0e94, 2025-05-08)"
   sodipodi:docname="csu-brand-circle.svg"
   xmlns:inkscape="http://www.inkscape.org/namespaces/inkscape"
   xmlns:sodipodi="http://sodipodi.sourceforge.net/DTD/sodipodi-0.dtd"
   xmlns="http://www.w3.org/2000/svg"
   xmlns:svg="http://www.w3.org/2000/svg">
  <sodipodi:namedview
     id="namedview1"
     pagecolor="#ffffff"
     bordercolor="#999999"
     borderopacity="1"
     inkscape:showpageshadow="2"
     inkscape:pageopacity="0"
     inkscape:pagecheckerboard="0"
     inkscape:deskcolor="#d1d1d1"
     inkscape:document-units="mm"
     inkscape:zoom="0.6025263"
     inkscape:cx="482.96647"
     inkscape:cy="697.065"
     inkscape:window-width="2510"
     inkscape:window-height="2113"
     inkscape:window-x="2151"
     inkscape:window-y="1560"
     inkscape:window-maximized="0"
     inkscape:current-layer="layer1" />
  <defs
     id="defs1">
    <clipPath
       clipPathUnits="userSpaceOnUse"
       id="clipPath3-2">
      <path
         d="m 10800,7563.4 c -1736.31,229 -3541.14,349.9 -5393.53,349.9 -1853.44,0 -3659.29,-121 -5396.50516,-350.3 V 0 H 10800 v 7563.4"
         transform="translate(0,-2.5000001e-4)"
         id="path3-4" />
    </clipPath>
  </defs>
  <g
     inkscape:label="Layer 1"
     inkscape:groupmode="layer"
     id="layer1"
     transform="translate(65.352087,-17.197921)">
    <path
       id="path2-1"
       d="m 10800,7563.4 c -5.8,0.8 -11.7,1.5 -17.6,2.3 v 0 c 5.9,-0.8 11.8,-1.5 17.6,-2.3 v 0 m -113.3,14.8 c -590.7,76.1 -1189.62,139.7 -1795.27,190.4 0.04,0 0.09,0.1 0.13,0.1 605.65,-50.7 1204.44,-114.3 1795.14,-190.5 v 0 m -1815.2,192 c -22.66,1.9 -45.11,3.8 -67.79,5.6 0.04,0.1 0.08,0.1 0.12,0.2 22.66,-1.9 45.16,-3.7 67.8,-5.6 -0.04,-0.1 -0.08,-0.1 -0.13,-0.2"
       style="fill:#d0e1d3;fill-opacity:1;fill-rule:nonzero;stroke:none"
       transform="matrix(0.03527778,0,0,-0.03527778,-65.352087,318.32208)"
       clip-path="url(#clipPath3-2)" />
    <path
       id="path16-7"
       d="m 311.61215,52.631053 c 0.0494,-0.296333 0.0847,-0.553879 0.10229,-0.769064 v 0 0 c 0.06,-0.03527 0.19404,-0.07057 0.27871,-0.102315 -0.15523,0.377481 -0.27871,0.659712 -0.381,0.871379"
       style="fill:#0d5e46;fill-opacity:1;fill-rule:nonzero;stroke:none;stroke-width:0.0352777" />
    <path
       id="path138-1"
       d="m -64.198258,41.694924 c 0.126646,-0.243416 0.221316,-0.440954 0.283464,-0.578538 v 0 0 c 0.03858,0.0282 0.06201,0.07408 0.09825,0.105834 -0.13849,0.172852 -0.267337,0.335121 -0.381717,0.472704"
       style="fill:#12391f;fill-opacity:1;fill-rule:nonzero;stroke:none;stroke-width:0.0352777" />
    <path
       id="path140-5"
       d="m -63.284614,40.379072 c -0.01834,0 -0.04231,0 -0.05389,-0.0034 0.101978,0 0.08668,0.0034 0.05389,0.0034"
       style="fill:#12391f;fill-opacity:1;fill-rule:nonzero;stroke:none;stroke-width:0.0352777" />
    <path
       id="path256-2"
       d="m 249.48939,30.624758 c -0.17709,-0.02461 -0.35349,-0.05292 -0.53023,-0.0776 0.0448,-0.194018 0.0469,-0.409231 0.0392,-0.631481 -0.0167,-0.472704 0.0356,-0.550333 0.48472,-0.550333 0.0579,0 0.12205,0.0034 0.19367,0.0034 0.37148,0.01058 0.41698,0.0776 0.30057,0.345704 -0.13547,0.313981 -0.34467,0.599731 -0.48789,0.910167"
       style="fill:#12391f;fill-opacity:1;fill-rule:nonzero;stroke:none;stroke-width:0.0352777" />
    <path
       id="path327-7"
       d="m 315.64792,37.454553 c -61.38122,-13.267981 -125.09783,-20.2565 -190.44745,-20.2565 -65.386653,0 -129.1392392,6.995584 -190.552557,20.277667 V 49.166758 C -3.9744006,35.711822 59.784536,28.61747 125.20047,28.61747 c 65.37856,0 129.1015,7.087288 190.44745,20.528121 V 37.454553"
       style="fill:#0c5f41;fill-opacity:1;fill-rule:nonzero;stroke:none;stroke-width:0.0352777" />
    <path
       id="path327-7-6"
       style="fill:#56c035;fill-opacity:1;fill-rule:nonzero;stroke:none;stroke-width:0.0352777"
       d="m 125.20063,17.197921 c -7.76543,0 -15.50781,0.09893 -23.22596,0.295063 v 11.423068 c 7.71783,-0.198728 15.46022,-0.298688 23.22596,-0.298688 7.76578,0 15.50815,0.09993 23.22597,0.298688 V 17.492984 c -7.71816,-0.196162 -15.46051,-0.295063 -23.22597,-0.295063 z" />
    <path
       id="path327-7-6-3"
       style="fill:#f2504a;fill-opacity:1;fill-rule:nonzero;stroke:none;stroke-width:0.0352777"
       d="m 185.79952,19.212776 v 11.445822 c 15.59782,1.054285 31.08484,2.512483 46.45091,4.364064 V 23.519478 c -15.3679,-1.827424 -30.85483,-3.266307 -46.45091,-4.306702 z" />
    <path
       id="path327-7-6-6"
       style="fill:#fab61f;fill-opacity:1;fill-rule:nonzero;stroke:none;stroke-width:0.0352777"
       d="m 269.62386,28.763097 v 11.573456 c 15.47992,2.538916 30.82499,5.479177 46.02406,8.809276 V 37.454553 c -15.20164,-3.28594 -30.5466,-6.186593 -46.02406,-8.691456 z" />
    <path
       id="path327-7-5"
       style="fill:#f2504a;fill-opacity:1;fill-rule:nonzero;stroke:none;stroke-width:0.0352777"
       d="M 64.601236,19.212273 C 49.00516,20.252536 33.518227,21.691684 18.150325,23.518976 v 11.503183 c 15.36605,-1.851395 30.853072,-3.309408 46.450911,-4.363561 z" />
    <path
       id="path327-7-7"
       style="fill:#fab61f;fill-opacity:1;fill-rule:nonzero;stroke:none;stroke-width:0.0352777"
       d="m -19.223105,28.762065 c -15.513174,2.510472 -30.892983,5.418534 -46.128969,8.713681 v 11.690747 c 15.233383,-3.339386 30.613294,-6.286923 46.128969,-8.831501 z" />
    <path
       id="path328-6"
       d="M 315.64792,49.145591 C 254.30197,35.704758 190.57903,28.61747 125.20047,28.61747 c -65.415934,0 -129.1748706,7.094352 -190.552557,20.549288 V 60.702591 C -4.0103839,47.074803 59.75455,39.881655 125.20047,39.881655 c 65.40854,0 129.13749,7.186084 190.44745,20.799769 V 49.145591"
       style="fill:#0b90bb;fill-opacity:1;fill-rule:nonzero;stroke:none;stroke-width:0.0352777" />
    <path
       id="path328-6-9"
       style="fill:#874376;fill-opacity:1;fill-rule:nonzero;stroke:none;stroke-width:0.0352777"
       d="m 166.8539,29.580103 v 11.276833 c 28.17598,1.321964 56.00327,3.977508 83.42021,7.904427 V 37.382216 C 222.85098,33.505594 195.02419,30.88479 166.8539,29.580103 Z" />
    <path
       id="path328-6-1"
       style="fill:#874376;fill-opacity:1;fill-rule:nonzero;stroke:none;stroke-width:0.0352777"
       d="M 83.129821,29.599233 C 54.959123,30.916911 27.13227,33.551076 -0.2904111,37.44061 V 48.820259 C 27.126079,44.880349 54.953421,42.211179 83.129821,40.876065 Z" />
  </g>
</svg>
