<?xml version="1.0" encoding="UTF-8" standalone="no"?>
<!-- Created with Inkscape (http://www.inkscape.org/) -->

<svg
   width="101.5986mm"
   height="101.60001mm"
   viewBox="0 0 101.59862 101.60003"
   version="1.1"
   id="svg5"
   xml:space="preserve"
   inkscape:version="1.4.2 (ebf0e94, 2025-05-08)"
   sodipodi:docname="csu.svg"
   xmlns:inkscape="http://www.inkscape.org/namespaces/inkscape"
   xmlns:sodipodi="http://sodipodi.sourceforge.net/DTD/sodipodi-0.dtd"
   xmlns="http://www.w3.org/2000/svg"
   xmlns:svg="http://www.w3.org/2000/svg"><sodipodi:namedview
     id="namedview7"
     pagecolor="#ffffff"
     bordercolor="#666666"
     borderopacity="1.0"
     inkscape:showpageshadow="2"
     inkscape:pageopacity="0.0"
     inkscape:pagecheckerboard="0"
     inkscape:deskcolor="#d1d1d1"
     inkscape:document-units="mm"
     showgrid="false"
     inkscape:zoom="0.84096521"
     inkscape:cx="-480.40037"
     inkscape:cy="274.68437"
     inkscape:window-width="2510"
     inkscape:window-height="2113"
     inkscape:window-x="2151"
     inkscape:window-y="1676"
     inkscape:window-maximized="0"
     inkscape:current-layer="layer1"><inkscape:page
       x="0"
       y="0"
       width="101.59862"
       height="101.60003"
       id="page1"
       margin="0"
       bleed="0" /><inkscape:page
       x="-3.1274083e-06"
       y="0"
       width="101.59863"
       height="101.60001"
       id="page2"
       margin="0"
       bleed="0" /></sodipodi:namedview><defs
     id="defs2" /><g
     inkscape:label="Layer 1"
     inkscape:groupmode="layer"
     id="layer1"
     transform="translate(-179.98189,-54.026567)" /><g
     id="g1"
     inkscape:groupmode="layer"
     inkscape:label="1"
     transform="matrix(0.26458337,0,0,0.26458337,3.3839442e-6,0)"><path
       id="path1"
       d="M 287.996,144 C 287.996,223.527 223.527,288 144,288 64.469,288 0,223.527 0,144 0,64.473 64.469,0 144,0 223.527,0 287.996,64.473 287.996,144"
       style="fill:#0c421e;fill-opacity:1;fill-rule:nonzero;stroke:none"
       transform="scale(1.3333333)" /><path
       id="path2"
       d="m 158.387,219.691 c -4.742,0.469 -9.942,1.579 -14.137,1.497 -4.195,0.082 -9.398,-1.028 -14.137,-1.497 -0.761,-0.086 -1.312,0.469 -1.312,0.469 -2.77,5.903 13.113,9.164 15.402,9.059 2.289,0.105 18.258,-3.156 15.496,-9.059 0,0 -0.562,-0.555 -1.312,-0.469"
       style="fill:#ffffff;fill-opacity:1;fill-rule:nonzero;stroke:none"
       transform="scale(1.3333333)" /><path
       id="path3"
       d="m 100.98,141.289 c 4.391,-4.023 15.782,8.863 13.258,18.941 -1.121,0.368 -1.679,-0.273 -4.304,-4.562 -1.864,-3.273 -6.625,-2.625 -8.868,-3.93 -3.625,-2.34 -3.445,-7.379 -0.086,-10.449 z m -2.804,38.82 c 2.429,6.536 8.031,17.368 15.023,27.539 -1.953,-16.148 7.008,-26.785 9.063,-31.175 3.832,-5.875 7.851,-18.672 5.515,-24.078 -3.734,-1.5 -8.218,-4.399 -10.929,-8.504 -2.711,-3.914 -4.289,-8.297 -9.047,-9.606 -3.176,-1.129 -6.735,-0.465 -9.34,0.934 -4.195,2.426 -5.219,8.203 -5.875,12.777 -0.277,9.43 1.484,23.344 5.59,32.113"
       style="fill:#ffffff;fill-opacity:1;fill-rule:nonzero;stroke:none"
       transform="scale(1.3333333)" /><path
       id="path4"
       d="m 186.949,141.289 c 3.449,3.07 3.551,8.109 -0.094,10.449 -2.144,1.305 -6.91,0.657 -8.863,3.93 -2.609,4.289 -3.179,4.93 -4.293,4.562 -2.515,-10.078 8.86,-22.964 13.25,-18.941 z m -12.136,66.359 c 7,-10.171 12.593,-21.003 14.929,-27.539 4.113,-8.769 5.977,-22.683 5.606,-32.113 -0.559,-4.574 -1.676,-10.351 -5.879,-12.777 -2.614,-1.399 -6.156,-2.063 -9.324,-0.934 -4.762,1.309 -6.262,5.692 -9.075,9.606 -2.691,4.105 -7.175,7.004 -10.91,8.504 -2.34,5.406 1.688,18.203 5.512,24.078 2.141,4.39 11.004,15.027 9.141,31.175"
       style="fill:#ffffff;fill-opacity:1;fill-rule:nonzero;stroke:none"
       transform="scale(1.3333333)" /><path
       id="path5"
       d="m 53.375,135.957 c -0.469,4.02 4.949,8.313 8.402,10.836 3.551,2.699 9.153,2.891 12.043,7.281 2.422,3.727 4.383,9.414 5.047,14.559 1.113,9.902 0.93,22.305 7.84,30.527 1.297,-4.863 -2.246,-15.773 -2.328,-29.871 -0.113,-5.226 -2.066,-11.203 -5.141,-15.137 5.688,-0.457 5.782,0.293 6.25,-1.484 0.551,-1.773 -0.562,-3.734 -1.871,-5.316 -4.105,-4.758 -9.98,-2.243 -15.219,-3.93 -3.445,-1.207 -8.761,-2.981 -9.046,-7.828 -0.184,-3.27 10.086,-4.02 10.086,-4.02 8.207,0.649 7.269,5.317 12.964,5.781 4.672,0.379 6.633,-4.566 8.133,-7.554 2.238,-4.758 4.844,-14.938 -4.672,-13.446 -4.953,0.84 -5.883,8.129 -2.156,12.512 -3.441,-0.379 -8.582,-5.137 -20.719,-1.312 -4.191,1.312 -8.957,2.996 -9.613,8.402"
       style="fill:#ffffff;fill-opacity:1;fill-rule:nonzero;stroke:none"
       transform="scale(1.3333333)" /><path
       id="path6"
       d="m 121.891,212.785 c 4.757,4.106 11.019,6.906 19.601,4.289 2.153,-1.484 0.934,-5.875 -0.179,-7.847 -4.02,-5.219 -10.27,-3.157 -12.047,-5.774 -1.688,-2.519 -0.559,-4.492 0.464,-5.785 1.497,-1.863 3.918,-1.402 5.973,-0.844 3.649,0.824 6.125,2.352 8.406,4.586 v 0.168 l 0.086,-0.082 0.098,0.082 v -0.172 c 2.195,-2.238 4.766,-3.765 8.402,-4.582 1.961,-0.558 4.481,-1.019 5.883,0.844 1.121,1.293 2.145,3.266 0.469,5.785 -1.777,2.617 -7.934,0.555 -11.953,5.774 -1.114,1.972 -2.43,6.363 -0.293,7.847 8.691,2.617 14.851,-0.183 19.609,-4.289 10.832,-9.246 -3.914,-28.754 -11.199,-36.59 -4.043,-4.332 -6.559,-8.101 -10.918,-8.207 v -0.008 l -0.098,0.008 -0.086,-0.008 v 0.008 c -4.457,0.106 -6.871,3.871 -11.015,8.207 -7.184,7.836 -21.942,27.344 -11.203,36.59"
       style="fill:#ffffff;fill-opacity:1;fill-rule:nonzero;stroke:none"
       transform="scale(1.3333333)" /><path
       id="path7"
       d="m 206.832,137.355 c 5.695,-0.464 4.844,-5.132 13.066,-5.781 0,0 10.266,0.75 10.09,4.02 -0.379,4.847 -5.707,6.621 -9.152,7.828 -5.133,1.687 -11.023,-0.828 -15.219,3.93 -1.297,1.582 -2.336,3.543 -1.875,5.316 0.469,1.777 0.672,1.027 6.356,1.484 -3.18,3.934 -5.043,9.911 -5.133,15.137 -0.176,14.098 -3.735,25.008 -2.336,29.871 6.82,-8.222 6.719,-20.625 7.848,-30.527 0.648,-5.145 2.511,-10.832 5.043,-14.559 2.89,-4.39 8.402,-4.582 12.035,-7.281 3.453,-2.523 8.859,-6.816 8.394,-10.836 -0.652,-5.406 -5.41,-7.09 -9.605,-8.402 -12.141,-3.825 -17.274,0.933 -20.817,1.312 3.821,-4.383 2.887,-11.672 -2.14,-12.512 -9.438,-1.492 -6.824,8.688 -4.578,13.446 1.492,2.988 3.355,7.933 8.023,7.554"
       style="fill:#ffffff;fill-opacity:1;fill-rule:nonzero;stroke:none"
       transform="scale(1.3333333)" /><path
       id="path8"
       d="m 114.961,116.98 c 2.738,2.524 15.082,0 17.441,-2.894 3.114,-3.731 9.328,-17.18 2.262,-26.043 C 124.91,75.699 85.676,40.27 48.559,66.988 57.598,54.543 71.211,43.305 87.484,34.965 105.824,25.57 125.902,20.684 144.039,21.184 h 0.106 c 18.117,-0.496 38.148,4.386 56.421,13.781 16.192,8.324 29.782,19.558 38.856,32.015 -37.199,-26.707 -76.328,8.719 -86.184,21.063 -6.972,8.863 -0.843,22.312 2.266,26.043 2.449,2.894 14.797,5.418 17.531,2.894 17.539,-15.769 27.723,-50.031 85.879,-15.675 -6.309,-0.934 -17.996,-4.399 -23.363,-0.934 -15.668,9.711 22.043,32.109 -2.559,76.445 0.196,0.278 14.434,-7.097 19.895,-6.91 3.586,0.184 5.476,2.606 4.906,6.25 -0.754,5.047 -4.621,8.227 -7.828,10.934 -13.672,11.199 -33.559,38.078 -23.57,37.519 9.898,-0.468 31.968,-32.855 35.449,-40.601 -4.051,13.527 -12.153,26.312 -20.274,37.426 -4.34,5.882 -9.32,10.73 -15.64,12.976 -3.961,1.582 -8.117,2.242 -12.168,0.371 -3.192,-1.394 -5.184,-4.574 -5.754,-8.125 -0.735,-5.222 2.18,-11.383 4.715,-15.496 3.504,-5.871 11.511,-16.137 20.742,-22.953 13.109,-9.715 22.25,-12.422 18.863,-14.656 -2.363,-1.59 -14.797,5.23 -17.246,6.535 -13.965,7.187 -33.203,28 -35.465,43.41 -1.558,10.617 8.938,18.59 17.961,18.219 -29.961,24.058 -62.566,24.844 -73.508,25.101 l -0.09,-0.003 h -0.023 c -11.039,-0.258 -43.703,-1.079 -73.551,-25.102 9.032,0.383 19.543,-7.59 17.973,-18.215 -2.266,-15.41 -21.59,-36.223 -35.441,-43.41 -2.454,-1.305 -14.907,-8.125 -17.262,-6.535 -3.391,2.234 5.746,4.941 18.855,14.656 9.246,6.816 17.168,17.082 20.649,22.953 2.64,4.113 5.562,10.274 4.808,15.496 -0.57,3.551 -2.636,6.731 -5.75,8.125 -4.058,1.871 -8.195,1.211 -12.254,-0.371 -6.214,-2.246 -11.218,-7.094 -15.554,-12.976 -8.2,-11.114 -16.211,-23.899 -20.274,-37.426 3.481,7.746 25.551,40.133 35.356,40.601 10.078,0.559 -9.805,-26.32 -23.481,-37.519 -3.297,-2.707 -7.07,-5.887 -7.812,-10.934 -0.582,-3.644 1.308,-6.066 4.894,-6.25 5.477,-0.187 19.707,7.188 19.887,6.91 -24.691,-44.336 13.109,-66.734 -2.535,-76.445 -5.481,-3.465 -17.059,0 -23.383,0.934 58.176,-34.356 68.34,-0.094 85.879,15.675 z M 244.219,70.773 h -0.004 z M 144.039,274.59 C 215.91,274.59 274.535,215.871 274.535,144 274.535,72.039 215.91,13.41 144.039,13.41 72.078,13.41 13.461,72.039 13.461,144 c 0,71.871 58.617,130.59 130.578,130.59"
       style="fill:#ffffff;fill-opacity:1;fill-rule:nonzero;stroke:none"
       transform="scale(1.3333333)" /></g></svg>
